<?xml version="1.0" encoding="UTF-8" standalone="no"?>
<!-- Created with Inkscape (http://www.inkscape.org/) -->

<svg
   width="201.90359mm"
   height="38.782871mm"
   viewBox="0 0 201.90359 38.782871"
   version="1.1"
   id="svg5324"
   xml:space="preserve"
   xmlns="http://www.w3.org/2000/svg"
   xmlns:svg="http://www.w3.org/2000/svg"><defs
     id="defs5321"><style
       id="style132">.cls-1{fill:none;}.cls-2{clip-path:url(#clip-path);}.cls-3{isolation:isolate;opacity:0.2;}.cls-4{fill:#54c5f8;}.cls-5{fill:#01579b;}.cls-6{fill:url(#linear-gradient);}.cls-7{fill:#29b6f6;}.cls-8{fill:url(#radial-gradient);}</style><filter
       style="color-interpolation-filters:sRGB"
       id="filter9622"
       x="-0.01580354"
       y="-0.040186118"
       width="1.0287217"
       height="1.0803722"><feGaussianBlur
         stdDeviation="0.27911455"
         id="feGaussianBlur9624" /></filter></defs><g
     id="layer1"
     transform="translate(-27.595777,-84.317968)"><g
       id="g9632"
       transform="translate(6.6346058)"
       clip-path="none"><g
         aria-label="ARB"
         transform="scale(0.95954418,1.0421615)"
         id="text5538-5"
         style="font-size:47.0758px;fill:#fff275;stroke:#000000;stroke-width:1.41111;paint-order:markers stroke fill;filter:url(#filter9622)"><path
           d="m 159.85819,116.50874 h -9.12554 l -2.36758,-6.91885 h -12.6884 l -2.36758,6.91885 h -8.89567 l 12.64242,-34.226495 h 10.15992 z m -13.63084,-13.19409 -4.20648,-12.274651 -4.20648,12.274651 z"
           style="font-weight:bold;font-family:Verdana;-inkscape-font-specification:'Verdana Bold'"
           id="path10562" /><path
           d="m 183.97074,92.763966 q 0,-1.287229 -0.52868,-2.206678 -0.52868,-0.919449 -1.81591,-1.448133 -0.89647,-0.367779 -2.09175,-0.436738 -1.19528,-0.09194 -2.78133,-0.09194 h -3.19509 v 9.217479 h 2.71237 q 2.11474,0 3.53988,-0.206876 1.42515,-0.206876 2.39057,-0.942436 0.91945,-0.712573 1.3332,-1.563063 0.43674,-0.873477 0.43674,-2.32161 z m 13.76875,23.744774 h -10.78054 l -9.33241,-12.55048 h -4.06856 v 12.55048 h -8.78074 V 82.282245 h 14.80313 q 3.03418,0 5.21788,0.344793 2.18369,0.344794 4.09155,1.494105 1.93084,1.149312 3.05716,2.98821 1.14932,1.815913 1.14932,4.57426 0,3.792729 -1.76994,6.183297 -1.74696,2.39057 -5.011,3.97662 z"
           style="font-weight:bold;font-family:Verdana;-inkscape-font-specification:'Verdana Bold'"
           id="path10564" /><path
           d="m 230.88565,106.02702 q 0,2.48251 -1.0114,4.43634 -0.98841,1.95383 -2.73536,3.24106 -2.02279,1.51709 -4.45933,2.16071 -2.41355,0.64361 -6.13732,0.64361 H 201.60119 V 82.282245 h 13.28604 q 4.13752,0 6.04538,0.275835 1.93084,0.275834 3.81571,1.21827 1.95383,0.988408 2.89627,2.666403 0.96542,1.655008 0.96542,3.792728 0,2.482513 -1.31022,4.39037 -1.31021,1.884871 -3.70078,2.942238 v 0.183889 q 3.35599,0.666601 5.30982,2.758352 1.97682,2.09174 1.97682,5.51669 z M 219.57642,91.959448 q 0,-0.85049 -0.43674,-1.700981 -0.41375,-0.850491 -1.4941,-1.264243 -0.96543,-0.367779 -2.41356,-0.390766 -1.42514,-0.04597 -4.02259,-0.04597 h -0.8275 v 7.240663 h 1.37917 q 2.09175,0 3.56287,-0.06896 1.47112,-0.06896 2.32161,-0.459725 1.19528,-0.528683 1.56306,-1.356187 0.36778,-0.850491 0.36778,-1.953831 z m 2.16071,13.929652 q 0,-1.63202 -0.64362,-2.50549 -0.62063,-0.89647 -2.13772,-1.33321 -1.03438,-0.29882 -2.85029,-0.3218 -1.81591,-0.023 -3.79273,-0.023 h -1.93084 v 8.52789 h 0.64361 q 3.72377,0 5.33281,-0.023 1.60903,-0.023 2.96522,-0.59765 1.37918,-0.57465 1.88487,-1.51709 0.52869,-0.96542 0.52869,-2.20668 z"
           style="font-weight:bold;font-family:Verdana;-inkscape-font-specification:'Verdana Bold'"
           id="path10566" /></g><g
         aria-label="ARB"
         transform="scale(0.95954419,1.0421615)"
         id="text5538"
         style="font-size:47.0758px;fill:#fff275;stroke:#000000;stroke-width:0.352778;paint-order:markers stroke fill"><path
           d="m 159.85819,116.50874 h -9.12554 l -2.36758,-6.91885 h -12.6884 l -2.36758,6.91885 h -8.89567 l 12.64242,-34.226495 h 10.15992 z m -13.63084,-13.19409 -4.20648,-12.274651 -4.20648,12.274651 z"
           style="font-weight:bold;font-family:Verdana;-inkscape-font-specification:'Verdana Bold'"
           id="path10569" /><path
           d="m 183.97074,92.763966 q 0,-1.287229 -0.52868,-2.206678 -0.52868,-0.919449 -1.81591,-1.448133 -0.89647,-0.367779 -2.09175,-0.436738 -1.19528,-0.09194 -2.78133,-0.09194 h -3.19509 v 9.217479 h 2.71237 q 2.11474,0 3.53988,-0.206876 1.42515,-0.206876 2.39057,-0.942436 0.91945,-0.712573 1.3332,-1.563063 0.43674,-0.873477 0.43674,-2.32161 z m 13.76875,23.744774 h -10.78054 l -9.33241,-12.55048 h -4.06856 v 12.55048 h -8.78074 V 82.282245 h 14.80313 q 3.03418,0 5.21788,0.344793 2.18369,0.344794 4.09155,1.494105 1.93084,1.149312 3.05716,2.98821 1.14932,1.815913 1.14932,4.57426 0,3.792729 -1.76994,6.183297 -1.74696,2.39057 -5.011,3.97662 z"
           style="font-weight:bold;font-family:Verdana;-inkscape-font-specification:'Verdana Bold'"
           id="path10571" /><path
           d="m 230.88565,106.02702 q 0,2.48251 -1.0114,4.43634 -0.98841,1.95383 -2.73536,3.24106 -2.02279,1.51709 -4.45933,2.16071 -2.41355,0.64361 -6.13732,0.64361 H 201.60119 V 82.282245 h 13.28604 q 4.13752,0 6.04538,0.275835 1.93084,0.275834 3.81571,1.21827 1.95383,0.988408 2.89627,2.666403 0.96542,1.655008 0.96542,3.792728 0,2.482513 -1.31022,4.39037 -1.31021,1.884871 -3.70078,2.942238 v 0.183889 q 3.35599,0.666601 5.30982,2.758352 1.97682,2.09174 1.97682,5.51669 z M 219.57642,91.959448 q 0,-0.85049 -0.43674,-1.700981 -0.41375,-0.850491 -1.4941,-1.264243 -0.96543,-0.367779 -2.41356,-0.390766 -1.42514,-0.04597 -4.02259,-0.04597 h -0.8275 v 7.240663 h 1.37917 q 2.09175,0 3.56287,-0.06896 1.47112,-0.06896 2.32161,-0.459725 1.19528,-0.528683 1.56306,-1.356187 0.36778,-0.850491 0.36778,-1.953831 z m 2.16071,13.929652 q 0,-1.63202 -0.64362,-2.50549 -0.62063,-0.89647 -2.13772,-1.33321 -1.03438,-0.29882 -2.85029,-0.3218 -1.81591,-0.023 -3.79273,-0.023 h -1.93084 v 8.52789 h 0.64361 q 3.72377,0 5.33281,-0.023 1.60903,-0.023 2.96522,-0.59765 1.37918,-0.57465 1.88487,-1.51709 0.52869,-0.96542 0.52869,-2.20668 z"
           style="font-weight:bold;font-family:Verdana;-inkscape-font-specification:'Verdana Bold'"
           id="path10573" /></g></g><text
       xml:space="preserve"
       style="font-style:normal;font-variant:normal;font-weight:normal;font-stretch:normal;font-size:46.3438px;font-family:Verdana;-inkscape-font-specification:Verdana;fill:#000000;stroke:#000000;stroke-width:1.93101;stroke-dasharray:none;stroke-opacity:1"
       x="26.479431"
       y="121.43384"
       id="text1810"><tspan
         id="tspan1808"
         style="stroke-width:1.93101"
         x="26.479431"
         y="121.43384">Web</tspan></text></g></svg>
